<svg xmlns="http://www.w3.org/2000/svg" viewBox="0 0 1571.75 1571.75"><defs><style>.cls-1{fill:#ff1515;}</style></defs><title>Zasób 1error</title><g id="Warstwa_2" data-name="Warstwa 2"><g id="Layer_1" data-name="Layer 1"><path class="cls-1" d="M1341.57,230.18c-306.9-306.91-804.49-306.91-1111.39,0s-306.91,804.49,0,1111.39,804.49,306.9,1111.39,0S1648.47,537.08,1341.57,230.18ZM366.94,367c111.9-111.9,260.68-173.53,418.93-173.53,121.79,0,237.94,36.53,336,104.35L297.77,1121.89c-67.82-98.08-104.35-214.23-104.35-336C193.42,627.62,255,478.85,366.94,367ZM785.87,1378.33c-121.78,0-237.94-36.54-336-104.36L1274,449.86c67.82,98.07,104.36,214.23,104.36,336,0,158.25-61.63,307-173.53,418.93S944.12,1378.33,785.87,1378.33Z"/></g></g></svg>