<svg xmlns="http://www.w3.org/2000/svg" viewBox="0 0 623.97 641.42"><defs><style>.cls-1{fill:none;}.cls-2{fill:#616e7d;}.cls-3{fill:#fff;}.cls-4{fill:#aad4c8;}.cls-5{fill:#82bfab;}</style></defs><title>Zasób 1file</title><g id="Warstwa_2" data-name="Warstwa 2"><g id="Object"><path class="cls-1" d="M208.2,240.22,434,240.07c15.44,0,31.32-14.81,31.32-30.26l-.12-177.63-287,.19L178.31,210C178.31,225.46,192.78,240.24,208.2,240.22ZM356.62,59.48l58.87,0A17.54,17.54,0,0,1,433.08,77l.09,118.29a17.6,17.6,0,0,1-17.56,17.59l-58.93,0a17.53,17.53,0,0,1-17.56-17.54L339,77A17.58,17.58,0,0,1,356.62,59.48Z"/><path class="cls-2" d="M531,15.45C521.72,6.2,504.22,0,491.19,0S51.93.3,51.93.3A52,52,0,0,0,0,52.29l.39,537.2a51.93,51.93,0,0,0,52,51.93L572,641.08a52,52,0,0,0,51.94-52s-.31-456.21-.31-463.23c0-11.32-2.73-20.64-10-27.91C608.92,93.27,557.47,41.89,531,15.45ZM465.21,32.18l.12,177.63c0,15.45-15.88,30.24-31.32,30.26l-225.81.15c-15.42,0-29.89-14.76-29.89-30.21l-.14-177.64Zm71.35,586.68H87.41V558.63h0V323.8C87.46,305.13,102,290,119.92,290H504.08c17.92,0,32.45,15.18,32.45,33.85V558.63h0Z"/><path class="cls-2" d="M356.68,212.89l58.93,0a17.6,17.6,0,0,0,17.56-17.59L433.08,77a17.54,17.54,0,0,0-17.59-17.52l-58.87,0A17.58,17.58,0,0,0,339,77l.09,118.31A17.53,17.53,0,0,0,356.68,212.89Z"/><path class="cls-3" d="M504.08,290H119.92C102,290,87.46,305.13,87.46,323.8V558.63H536.53V323.8C536.53,305.13,522,290,504.08,290Zm-8.42,198.64H128.31V471.91H495.66Zm0-50H128.31V421.86H495.66Zm0-50H128.31V371.82H495.66Z"/><polygon class="cls-4" points="536.53 558.63 87.46 558.63 87.41 558.63 87.41 618.87 536.56 618.87 536.56 558.63 536.53 558.63"/><rect class="cls-5" x="128.31" y="371.82" width="367.35" height="16.69"/><rect class="cls-5" x="128.31" y="421.86" width="367.35" height="16.68"/><rect class="cls-5" x="128.31" y="471.91" width="367.35" height="16.68"/></g></g></svg>